<svg width="32" height="32" viewBox="0 0 32 32" fill="none" xmlns="http://www.w3.org/2000/svg">
<g clip-path="url(#clip0_22_119)">
<path d="M11.04 0.718C11.1009 0.510657 11.2274 0.328637 11.4005 0.1992C11.5736 0.0697624 11.7839 -0.000126373 12 1.71543e-07H20C20.1584 0.000120387 20.3144 0.037852 20.4554 0.110089C20.5963 0.182326 20.7181 0.287002 20.8106 0.4155C20.9032 0.543999 20.9639 0.692645 20.9878 0.849201C21.0117 1.00576 20.998 1.16575 20.948 1.316L17.388 12H25C25.1873 11.9999 25.3708 12.0523 25.5297 12.1514C25.6886 12.2505 25.8166 12.3922 25.8989 12.5604C25.9812 12.7286 26.0147 12.9165 25.9954 13.1028C25.9762 13.2891 25.905 13.4662 25.79 13.614L11.79 31.614C11.6466 31.7993 11.4427 31.9283 11.2138 31.9786C10.985 32.0289 10.7457 31.9972 10.5378 31.8891C10.33 31.781 10.1666 31.6033 10.0764 31.3871C9.98613 31.1709 9.97467 30.9298 10.044 30.706L13.646 19H7.00001C6.84454 19.0001 6.69118 18.9639 6.55213 18.8944C6.41308 18.8248 6.29216 18.7238 6.19897 18.5994C6.10578 18.475 6.04289 18.3305 6.0153 18.1775C5.9877 18.0245 5.99616 17.8672 6.04001 17.718L11.04 0.718Z" fill="#D3B0FF"/>
</g>
<defs>
<clipPath id="clip0_22_119">
<rect width="32" height="32" fill="white"/>
</clipPath>
</defs>
</svg>
