<svg width="24" height="24" viewBox="0 0 24 24" fill="none" xmlns="http://www.w3.org/2000/svg">
<g clip-path="url(#clip0_28_242)">
<path d="M20.4854 3.5149C15.7988 -1.17163 8.20155 -1.17163 3.51495 3.5149C-1.17165 8.20143 -1.17165 15.7986 3.51495 20.4851C8.20155 25.1716 15.7988 25.1716 20.4854 20.4851C25.172 15.7986 25.171 8.20143 20.4854 3.5149ZM17.0909 15.7333C17.2709 15.9133 17.3721 16.1574 17.3721 16.412C17.3721 16.6665 17.2709 16.9107 17.0909 17.0907C16.9109 17.2707 16.6668 17.3718 16.4122 17.3718C16.1577 17.3718 15.9135 17.2707 15.7335 17.0907L12.0002 13.3574L8.26683 17.0907C8.17789 17.1801 8.07214 17.2511 7.95566 17.2996C7.83918 17.348 7.71428 17.3729 7.58813 17.3729C7.46198 17.3729 7.33708 17.348 7.2206 17.2996C7.10412 17.2511 6.99837 17.1801 6.90943 17.0907C6.8202 17.0016 6.74942 16.8958 6.70112 16.7794C6.65282 16.6629 6.62796 16.5381 6.62796 16.412C6.62796 16.2859 6.65282 16.1611 6.70112 16.0446C6.74942 15.9282 6.8202 15.8224 6.90943 15.7333L10.6428 12L6.90943 8.26671C6.72942 8.08671 6.6283 7.84258 6.6283 7.58802C6.6283 7.33346 6.72942 7.08932 6.90943 6.90932C7.08943 6.72932 7.33357 6.6282 7.58813 6.6282C7.84269 6.6282 8.08683 6.72932 8.26683 6.90932L12.0002 10.6426L15.7335 6.90932C15.8227 6.8202 15.9285 6.7495 16.0449 6.70126C16.1614 6.65303 16.2862 6.6282 16.4122 6.6282C16.5383 6.6282 16.6631 6.65303 16.7795 6.70126C16.896 6.7495 17.0018 6.8202 17.0909 6.90932C17.1801 6.99845 17.2508 7.10426 17.299 7.22071C17.3472 7.33716 17.3721 7.46197 17.3721 7.58802C17.3721 7.71406 17.3472 7.83887 17.299 7.95532C17.2508 8.07177 17.1801 8.17758 17.0909 8.26671L13.3576 12L17.0909 15.7333Z" fill="#FA4812"/>
</g>
<defs>
<clipPath id="clip0_28_242">
<rect width="24" height="24" fill="white"/>
</clipPath>
</defs>
</svg>
