<svg width="24" height="24" viewBox="0 0 24 24" fill="none" xmlns="http://www.w3.org/2000/svg">
<g clip-path="url(#clip0_28_241)">
<path d="M12.063 0C5.436 0 0.0630035 5.373 0.0630035 12C0.0630035 18.627 5.436 24 12.063 24C18.69 24 24.063 18.627 24.063 12C24.063 5.373 18.69 0 12.063 0ZM17.622 8.6805L11.874 17.466C11.8725 17.4675 11.8695 17.469 11.8695 17.4705C11.8395 17.5155 11.823 17.5665 11.7855 17.6085C11.733 17.6655 11.6655 17.6955 11.6055 17.739C11.5905 17.7495 11.5755 17.7615 11.559 17.772C11.466 17.8305 11.37 17.8695 11.265 17.895C11.2305 17.904 11.199 17.913 11.163 17.919C11.0795 17.9305 10.9948 17.9315 10.911 17.922C10.8518 17.9183 10.7931 17.9092 10.7355 17.895C10.6761 17.8771 10.6184 17.854 10.563 17.826C10.515 17.8035 10.464 17.7975 10.419 17.769C10.386 17.748 10.368 17.715 10.3395 17.6895C10.3275 17.679 10.3125 17.676 10.3005 17.6655L6.954 14.571C6.75564 14.3805 6.63992 14.1198 6.63171 13.845C6.6235 13.5701 6.72346 13.303 6.9101 13.101C7.09674 12.899 7.35517 12.7783 7.62984 12.7649C7.90452 12.7514 8.17351 12.8463 8.379 13.029L10.8015 15.27L15.864 7.5315C16.0164 7.29837 16.2551 7.13532 16.5277 7.07822C16.8003 7.02112 17.0844 7.07463 17.3175 7.227C17.5506 7.37937 17.7137 7.6181 17.7708 7.89069C17.8279 8.16327 17.7744 8.44738 17.622 8.6805Z" fill="#4BB543"/>
</g>
<defs>
<clipPath id="clip0_28_241">
<rect width="24" height="24" fill="white"/>
</clipPath>
</defs>
</svg>
