<svg width="32" height="32" viewBox="0 0 32 32" fill="none" xmlns="http://www.w3.org/2000/svg">
<path d="M16 8C16.1751 7.99995 16.3485 8.03441 16.5103 8.1014C16.6721 8.16839 16.8191 8.2666 16.9429 8.39042C17.0667 8.51424 17.1649 8.66125 17.2319 8.82303C17.2989 8.98482 17.3334 9.15822 17.3333 9.33333V15.23L20.1302 16.8451C20.4363 17.022 20.6597 17.3132 20.7511 17.6547C20.8426 17.9963 20.7947 18.3601 20.6179 18.6663C20.4411 18.9725 20.15 19.196 19.8085 19.2876C19.4671 19.3793 19.1032 19.3315 18.7969 19.1549L15.3333 17.1549C15.131 17.0374 14.963 16.869 14.846 16.6663C14.7291 16.4637 14.6672 16.234 14.6667 16V9.33333C14.6666 9.15822 14.7011 8.98482 14.7681 8.82303C14.8351 8.66125 14.9333 8.51424 15.0571 8.39042C15.1809 8.2666 15.3279 8.16839 15.4897 8.1014C15.6515 8.03441 15.8249 7.99995 16 8Z" fill="#171427"/>
<path d="M2.66666 16C2.66666 18.6371 3.44865 21.215 4.91374 23.4076C6.37882 25.6003 8.4612 27.3092 10.8976 28.3184C13.3339 29.3276 16.0148 29.5916 18.6012 29.0772C21.1876 28.5627 23.5634 27.2928 25.4281 25.4281C27.2928 23.5634 28.5627 21.1876 29.0771 18.6012C29.5916 16.0148 29.3276 13.3339 28.3184 10.8976C27.3092 8.46123 25.6003 6.37884 23.4076 4.91376C21.2149 3.44867 18.6371 2.66669 16 2.66669C14.249 2.66669 12.5152 3.01156 10.8976 3.68163C9.27988 4.35169 7.81002 5.33382 6.57191 6.57193C4.07142 9.07242 2.66666 12.4638 2.66666 16ZM14.6667 9.33335C14.6667 8.97973 14.8071 8.64059 15.0572 8.39054C15.3072 8.1405 15.6464 8.00002 16 8.00002C16.3536 8.00002 16.6928 8.1405 16.9428 8.39054C17.1929 8.64059 17.3333 8.97973 17.3333 9.33335V15.23L20.1302 16.8451C20.4363 17.022 20.6597 17.3132 20.7511 17.6547C20.8426 17.9963 20.7947 18.3601 20.6179 18.6663C20.4411 18.9726 20.15 19.196 19.8085 19.2877C19.4671 19.3793 19.1032 19.3316 18.7969 19.155L15.3333 17.155C15.131 17.0375 14.963 16.869 14.846 16.6664C14.7291 16.4637 14.6672 16.234 14.6667 16V9.33335Z" fill="#D3B0FF"/>
</svg>
