<svg width="24" height="24" viewBox="0 0 24 24" fill="none" xmlns="http://www.w3.org/2000/svg">
<g clip-path="url(#clip0_171_724)">
<path d="M1 11.418H6.77734C5.18359 10.7148 4.09375 9.41406 4.09375 7.83203C4.09375 6.00391 5.44141 4.65625 7.24609 4.65625C8.81641 4.65625 10.2227 5.62891 11.043 7.24609V1H12.5781V7.24609C13.3984 5.62891 14.8047 4.65625 16.3633 4.65625C18.1797 4.65625 19.5156 6.00391 19.5156 7.83203C19.5156 9.41406 18.4258 10.7148 16.8438 11.418H22.6094V12.8242H13.7852C14.5117 14.3242 16.9141 16.5742 18.6484 16.7617C19.3047 16.8203 19.668 17.2188 19.668 17.8398C19.668 18.3906 19.2227 18.9062 18.5078 18.8125C16.5742 18.5312 13.4805 16.2578 12.6602 13.6914H12.5781V22.6094H11.043V13.6914H10.9492C10.1289 16.2578 7.03516 18.5312 5.11328 18.8125C4.39844 18.9062 3.95312 18.3906 3.95312 17.8398C3.95312 17.2188 4.31641 16.832 4.96094 16.7617C6.69531 16.5508 9.09766 14.3242 9.82422 12.8242H1V11.418ZM10.4336 11.2422H10.8086V10.8789C10.8086 8.51172 9.20312 6.44922 7.33984 6.44922C6.4375 6.44922 5.86328 7.04688 5.86328 7.97266C5.86328 9.55469 7.97266 11.2422 10.4336 11.2422ZM13.1758 11.2422C15.6484 11.2422 17.7461 9.55469 17.7461 7.97266C17.7461 7.04688 17.1719 6.44922 16.2695 6.44922C14.418 6.44922 12.8008 8.51172 12.8008 10.8789V11.2422H13.1758ZM21.2383 2.38281C20.043 1.1875 18.3555 1 16.3516 1H7.22266C5.25391 1 3.56641 1.1875 2.37109 2.38281C1.17578 3.57812 1 5.25391 1 7.22266V16.3516C1 18.3555 1.17578 20.0312 2.37109 21.2266C3.56641 22.4219 5.25391 22.6094 7.24609 22.6094H16.3516C18.3555 22.6094 20.043 22.4219 21.2383 21.2266C22.4336 20.0312 22.6094 18.3555 22.6094 16.3516V7.24609C22.6094 5.24219 22.4336 3.57812 21.2383 2.38281Z" fill="#D3B0FF"/>
</g>
<defs>
<clipPath id="clip0_171_724">
<rect width="21.6094" height="21.6211" fill="white" transform="translate(1 1)"/>
</clipPath>
</defs>
</svg>
