<svg width="32" height="32" viewBox="0 0 32 32" fill="none" xmlns="http://www.w3.org/2000/svg">
<g clip-path="url(#clip0_22_116)">
<path d="M16 31.9842C24.753 31.9842 32 24.7251 32 15.9921C32 7.2435 24.7373 0 15.9843 0C7.24707 0 0 7.2435 0 15.9921C0 24.7251 7.26276 31.9842 16 31.9842Z" fill="#D3B0FF"/>
<path d="M16 25.2268C15.5608 25.2268 15.2314 24.9132 15.2314 24.4585V23.2984C13.0667 23.0945 11.2628 21.9029 10.8079 20.0372C10.7608 19.8804 10.7294 19.708 10.7294 19.5355C10.7294 18.9711 11.1216 18.5791 11.6706 18.5791C12.1569 18.5791 12.4863 18.8299 12.6745 19.3944C12.9412 20.4606 13.7883 21.2757 15.2314 21.4796V16.7133L15.1216 16.682C12.4236 16.0392 11.0275 14.8162 11.0275 12.7623C11.0275 10.5517 12.7843 9.01515 15.2314 8.74862V7.63544C15.2314 7.18077 15.5608 6.86719 16 6.86719C16.4392 6.86719 16.7686 7.18077 16.7686 7.63544V8.74862C18.8392 8.98379 20.502 10.1911 20.9255 11.9314C20.9568 12.1038 21.004 12.2763 21.004 12.4331C21.004 12.9975 20.5961 13.3895 20.0472 13.3895C19.5294 13.3895 19.2158 13.0759 19.0589 12.5899C18.7295 11.508 17.9294 10.8182 16.7686 10.6144V15.1142L16.9883 15.1611C19.7962 15.6628 21.2236 16.9955 21.2236 19.1906C21.2236 21.6364 19.2628 23.0945 16.7686 23.3297V24.4585C16.7686 24.9132 16.4392 25.2268 16 25.2268ZM15.2314 14.7065V10.6144C13.8667 10.8496 13.0353 11.6805 13.0353 12.6526C13.0353 13.609 13.6785 14.2517 15.1216 14.6752L15.2314 14.7065ZM16.7686 17.0896V21.4796C18.4157 21.2915 19.2158 20.4291 19.2158 19.3003C19.2158 18.2812 18.6824 17.6071 17.1138 17.1838L16.7686 17.0896Z" fill="#171427"/>
</g>
<defs>
<clipPath id="clip0_22_116">
<rect width="32" height="32" fill="white"/>
</clipPath>
</defs>
</svg>
