<svg width="24" height="24" viewBox="0 0 24 24" fill="none" xmlns="http://www.w3.org/2000/svg">
<path fill-rule="evenodd" clip-rule="evenodd" d="M19.6719 1.63679C21.2857 1.42572 22.6157 2.7557 22.4046 4.36958C22.0961 6.72858 21.249 10.7361 18.8535 13.3189C18.0913 14.1407 17.1707 14.9 16.2239 15.5747L16.5005 17.5111C16.5784 18.0564 16.395 18.6065 16.0055 18.996L12.8236 22.178C11.8039 23.1977 10.0577 22.6157 9.85371 21.1881L9.42945 18.2182L9.43072 18.218C9.15977 18.0869 8.90853 17.9095 8.68965 17.6906L6.3508 15.3518C6.1319 15.1329 5.95452 14.8816 5.82337 14.6107L5.82318 14.612L2.85333 14.1877C1.42575 13.9838 0.843679 12.2376 1.86338 11.2179L5.04536 8.0359C5.43486 7.64641 5.985 7.46303 6.53029 7.54093L8.46675 7.81757C9.1414 6.87079 9.90071 5.95013 10.7225 5.18793C13.3054 2.79242 17.3128 1.94532 19.6719 1.63679ZM4.33828 15.4605C4.63117 15.7534 4.63117 16.2283 4.33828 16.5212L2.92407 17.9354C2.63117 18.2283 2.1563 18.2283 1.86341 17.9354C1.57051 17.6425 1.57051 17.1676 1.86341 16.8747L3.27762 15.4605C3.57051 15.1676 4.04539 15.1676 4.33828 15.4605ZM6.4596 17.5818C6.75249 17.8747 6.75249 18.3496 6.4596 18.6425L3.63117 21.4709C3.33828 21.7638 2.86341 21.7638 2.57051 21.4709C2.27762 21.178 2.27762 20.7031 2.57051 20.4103L5.39894 17.5818C5.69183 17.2889 6.16671 17.2889 6.4596 17.5818ZM8.58092 19.7031C8.87381 19.996 8.87381 20.4709 8.58092 20.7638L7.16671 22.178C6.87381 22.4709 6.39894 22.4709 6.10605 22.178C5.81315 21.8851 5.81315 21.4102 6.10605 21.1174L7.52026 19.7031C7.81315 19.4103 8.28802 19.4103 8.58092 19.7031ZM13.7071 10.3339C12.9261 9.55284 12.9261 8.28651 13.7071 7.50546C14.4882 6.72441 15.7545 6.72441 16.5356 7.50546C17.3166 8.28651 17.3166 9.55284 16.5356 10.3339C15.7545 11.1149 14.4882 11.1149 13.7071 10.3339Z" fill="#D3B0FF"/>
</svg>
