<svg width="24" height="26" viewBox="0 0 24 26" fill="none" xmlns="http://www.w3.org/2000/svg">
<g clip-path="url(#clip0_179_928)">
<path d="M5.59766 25.1133H20.7734C21.2891 25.1133 21.7109 24.7031 21.7109 24.1758C21.7109 23.7656 21.4297 23.4023 21.0547 23.2734C19.5781 22.6875 19.2734 20.7773 20.7266 19.3125C21.1719 18.8672 21.7109 18.293 21.7109 17.1211V3.67969C21.7109 1.24219 20.5039 0 18.0781 0H5.63281C3.20703 0 2 1.23047 2 3.67969V21.4922C2 23.9062 3.21875 25.1133 5.59766 25.1133ZM5.70312 23.2266C4.51953 23.2266 3.88672 22.5938 3.88672 21.4805C3.88672 20.4258 4.63672 19.7461 5.80859 19.7461H17.832C17.9844 19.7461 18.125 19.7344 18.2422 19.7109C17.6914 20.9297 17.7852 22.2188 18.4062 23.2266H5.70312ZM5.35156 17.9648C4.98828 17.9648 4.68359 17.6602 4.68359 17.2852V2.48438C4.68359 2.10938 4.98828 1.81641 5.35156 1.81641C5.71484 1.81641 6.03125 2.10938 6.03125 2.48438V17.2852C6.03125 17.6602 5.71484 17.9648 5.35156 17.9648Z" fill="#D3B0FF" fill-opacity="0.85"/>
</g>
<defs>
<clipPath id="clip0_179_928">
<rect width="19.7109" height="25.1133" fill="white" transform="translate(2)"/>
</clipPath>
</defs>
</svg>
